<?xml version="1.0" encoding="utf-8"?>
<!-- Generator: Adobe Adobe Illustrator 24.2.0, SVG Export Plug-In . SVG Version: 6.00 Build 0)  -->
<svg version="1.1" id="Layer_1" xmlns="http://www.w3.org/2000/svg" xmlns:xlink="http://www.w3.org/1999/xlink" x="0px" y="0px"
	 width="646.65px" height="646.65px" viewBox="0 0 646.65 646.65" style="enable-background:new 0 0 646.65 646.65;"
	 xml:space="preserve">
<path d="M643.12,323.33c0,60.1-16.58,116.32-45.41,164.35c-1.71,2.86-3.47,5.68-5.27,8.48c-15.15,23.55-47.71,28.16-68.96,9.9
	l-166.25-142.8c-18.63-16-15.2-45.77,6.59-57.12l31.91-16.63c13.52-7.04,22-21.01,22-36.25c0-11.87-4.81-22.62-12.59-30.4
	c-7.78-7.77-18.53-12.59-30.4-12.59h-52.35v188.13c0,51.6-41.83,93.43-93.43,93.43h-0.01c-51.6,0-93.43-41.83-93.43-93.43v-8.77
	c0-16.66,13.51-30.17,30.17-30.17c8.33,0,15.87,3.38,21.33,8.84s8.83,13,8.83,21.32v9.83c0,17.69,14.34,32.04,32.04,32.04h0.01
	c17.69,0,32.04-14.34,32.04-32.04V210.25h-46.69c-16.66,0-30.17-13.51-30.17-30.17c0-8.33,3.38-15.86,8.84-21.32
	c5.46-5.46,13-8.84,21.32-8.84h164.91c55.02,0,101.89,43.19,101.9,108.13c0,35.52-19.76,68.1-51.26,84.51l51.26,44.03l69.44,59.65
	c19.89-36.52,31.2-78.39,31.2-122.91c0-19.46-2.16-38.42-6.25-56.63c-4.44-19.77-11.16-38.68-19.86-56.44
	c-0.45-0.93-0.91-1.85-1.37-2.77c-10.6-21.01-24-40.35-39.7-57.56c-10.22-11.21-21.41-21.49-33.45-30.75
	c-18.87-14.51-39.82-26.46-62.31-35.34c-29.46-11.62-61.6-17.96-95.22-17.86C180.02,66.41,65.69,181.36,65.98,323.86
	c0.29,141.88,115.4,256.82,257.35,256.82c52.88,0,102.01-15.94,142.89-43.29c11.66-7.8,27.07-6.87,37.71,2.26
	c7.3,6.28,10.89,15.01,10.89,23.7c0,9.92-4.67,19.79-13.8,25.9c-50.81,34.02-111.93,53.88-177.7,53.88
	C145.95,643.12,2.29,498.7,3.54,321.04C4.77,143.25,149.58,1.35,327.36,3.55c31.42,0.39,61.76,5.3,90.36,14.13
	c21.87,6.75,42.73,15.77,62.31,26.8c54.98,30.97,99.89,77.73,128.55,134.14c9.41,18.51,17.06,38.05,22.75,58.42
	C639.01,264.49,643.12,293.44,643.12,323.33z"/>
</svg>
